HIERARCHY
ROOT reference
{
  OFFSET 0 0 0
  CHANNELS 6 Xposition Yposition Zposition Zrotation Xrotation Yrotation
  JOINT Hips
  {
    OFFSET 366.965 89.8555 201.872
    CHANNELS 3 Zrotation Xrotation Yrotation
    JOINT RightUpLeg
    {
      OFFSET -9.27238 -1.56811 0.0123499
      CHANNELS 3 Zrotation Xrotation Yrotation
      JOINT RightLeg
      {
        OFFSET 0.00682797 -41.8882 0.0419786
        CHANNELS 3 Zrotation Xrotation Yrotation
        JOINT RightFoot
        {
          OFFSET 0.530869 -42.1265 0.242224
          CHANNELS 3 Zrotation Xrotation Yrotation
          End Site
          {
            OFFSET 0 -7.69 17.5
          }
        }
      }
    }
    JOINT LeftUpLeg
    {
      OFFSET 9.28391 -1.61639 -0.0258413
      CHANNELS 3 Zrotation Xrotation Yrotation
      JOINT LeftLeg
      {
        OFFSET 0.0291166 -41.8727 -0.014263
        CHANNELS 3 Zrotation Xrotation Yrotation
        JOINT LeftFoot
        {
          OFFSET -0.125672 -41.4933 -0.195947
          CHANNELS 3 Zrotation Xrotation Yrotation
          End Site
          {
            OFFSET 0 -7.69 17.5
          }
        }
      }
    }
    JOINT Spine
    {
      OFFSET 0.0325614 14.2957 0.0242834
      CHANNELS 3 Zrotation Xrotation Yrotation
      JOINT Spine1
      {
        OFFSET 0.00746153 9.71731 0.0172653
        CHANNELS 3 Zrotation Xrotation Yrotation
        JOINT Spine2
        {
          OFFSET 0.0283815 10.1155 -0.00252583
          CHANNELS 3 Zrotation Xrotation Yrotation
          JOINT Spine3
          {
            OFFSET 0.0279172 9.71841 -0.00465252
            CHANNELS 3 Zrotation Xrotation Yrotation
            JOINT Neck
            {
              OFFSET 0.0182001 10.3765 0.0184284
              CHANNELS 3 Zrotation Xrotation Yrotation
              JOINT Head
              {
                OFFSET 0.0113688 9.47343 0.00632939
                CHANNELS 3 Zrotation Xrotation Yrotation
                End Site
                {
                  OFFSET 0 15.95 0
                }
              }
            }
            JOINT RightShoulder
            {
              OFFSET -3.17351 6.93492 0.00767284
              CHANNELS 3 Zrotation Xrotation Yrotation
              JOINT RightArm
              {
                OFFSET -12.7835 -0.0133269 0.0174019
                CHANNELS 3 Zrotation Xrotation Yrotation
                JOINT RightForeArm
                {
                  OFFSET -26.5112 -0.0170228 0.0247955
                  CHANNELS 3 Zrotation Xrotation Yrotation
                  JOINT RightHand
                  {
                    OFFSET -25.9918 -0.0199622 0.0218897
                    CHANNELS 3 Zrotation Xrotation Yrotation
                    JOINT RightHandThumb1
                    {
                      OFFSET -2.48905 0.190105 3.12053
                      CHANNELS 3 Zrotation Xrotation Yrotation
                      JOINT RightHandThumb2
                      {
                        OFFSET -3.68274 0 0
                        CHANNELS 3 Zrotation Xrotation Yrotation
                        JOINT RightHandThumb3
                        {
                          OFFSET -2.55832 0 0
                          CHANNELS 3 Zrotation Xrotation Yrotation
                          End Site
                          {
                            OFFSET -2.194 0 0
                          }
                        }
                      }
                    }
                    JOINT RightInHandIndex
                    {
                      OFFSET -3.22368 0.508421 1.97842
                      CHANNELS 3 Zrotation Xrotation Yrotation
                      JOINT RightHandIndex1
                      {
                        OFFSET -5.21684 -0.091368 0.999158
                        CHANNELS 3 Zrotation Xrotation Yrotation
                        JOINT RightHandIndex2
                        {
                          OFFSET -3.61937 0 0
                          CHANNELS 3 Zrotation Xrotation Yrotation
                          JOINT RightHandIndex3
                          {
                            OFFSET -2.0521 0 0
                            CHANNELS 3 Zrotation Xrotation Yrotation
                            End Site
                            {
                              OFFSET -1.805 0 0
                            }
                          }
                        }
                      }
                    }
                    JOINT RightInHandMiddle
                    {
                      OFFSET -3.38211 0.517263 0.756737
                      CHANNELS 3 Zrotation Xrotation Yrotation
                      JOINT RightHandMiddle1
                      {
                        OFFSET -5.17411 -0.084 0.313895
                        CHANNELS 3 Zrotation Xrotation Yrotation
                        JOINT RightHandMiddle2
                        {
                          OFFSET -3.94947 0 0
                          CHANNELS 3 Zrotation Xrotation Yrotation
                          JOINT RightHandMiddle3
                          {
                            OFFSET -2.47579 0 0
                            CHANNELS 3 Zrotation Xrotation Yrotation
                            End Site
                            {
                              OFFSET -1.975 0 0
                            }
                          }
                        }
                      }
                    }
                    JOINT RightInHandRing
                    {
                      OFFSET -3.36516 0.537895 -0.128947
                      CHANNELS 3 Zrotation Xrotation Yrotation
                      JOINT RightHandRing1
                      {
                        OFFSET -4.63474 -0.022105 -0.478947
                        CHANNELS 3 Zrotation Xrotation Yrotation
                        JOINT RightHandRing2
                        {
                          OFFSET -3.44238 0 0
                          CHANNELS 3 Zrotation Xrotation Yrotation
                          JOINT RightHandRing3
                          {
                            OFFSET -2.3881 0 0
                            CHANNELS 3 Zrotation Xrotation Yrotation
                            End Site
                            {
                              OFFSET -1.857 0 0
                            }
                          }
                        }
                      }
                    }
                    JOINT RightInHandPinky
                    {
                      OFFSET -3.16105 0.469368 -1.20179
                      CHANNELS 3 Zrotation Xrotation Yrotation
                      JOINT RightHandPinky1
                      {
                        OFFSET -4.14105 -0.022105 -1.09053
                        CHANNELS 3 Zrotation Xrotation Yrotation
                        JOINT RightHandPinky2
                        {
                          OFFSET -2.75653 0 0
                          CHANNELS 3 Zrotation Xrotation Yrotation
                          JOINT RightHandPinky3
                          {
                            OFFSET -1.74189 0 0
                            CHANNELS 3 Zrotation Xrotation Yrotation
                            End Site
                            {
                              OFFSET -1.645 0 0
                            }
                          }
                        }
                      }
                    }
                  }
                }
              }
            }
            JOINT LeftShoulder
            {
              OFFSET 3.23633 6.91116 -0.0162332
              CHANNELS 3 Zrotation Xrotation Yrotation
              JOINT LeftArm
              {
                OFFSET 12.8112 -0.0136289 -0.0286256
                CHANNELS 3 Zrotation Xrotation Yrotation
                JOINT LeftForeArm
                {
                  OFFSET 26.502 -0.0235899 -0.00806802
                  CHANNELS 3 Zrotation Xrotation Yrotation
                  JOINT LeftHand
                  {
                    OFFSET 25.9974 -0.0321613 -0.027004
                    CHANNELS 3 Zrotation Xrotation Yrotation
                    JOINT LeftHandThumb1
                    {
                      OFFSET 2.48905 0.190105 3.12053
                      CHANNELS 3 Zrotation Xrotation Yrotation
                      JOINT LeftHandThumb2
                      {
                        OFFSET 3.68274 0 0
                        CHANNELS 3 Zrotation Xrotation Yrotation
                        JOINT LeftHandThumb3
                        {
                          OFFSET 2.55832 0 0
                          CHANNELS 3 Zrotation Xrotation Yrotation
                          End Site
                          {
                            OFFSET 2.194 0 0
                          }
                        }
                      }
                    }
                    JOINT LeftInHandIndex
                    {
                      OFFSET 3.22368 0.508421 1.97842
                      CHANNELS 3 Zrotation Xrotation Yrotation
                      JOINT LeftHandIndex1
                      {
                        OFFSET 5.21684 -0.091368 0.999158
                        CHANNELS 3 Zrotation Xrotation Yrotation
                        JOINT LeftHandIndex2
                        {
                          OFFSET 3.61937 0 0
                          CHANNELS 3 Zrotation Xrotation Yrotation
                          JOINT LeftHandIndex3
                          {
                            OFFSET 2.0521 0 0
                            CHANNELS 3 Zrotation Xrotation Yrotation
                            End Site
                            {
                              OFFSET 1.805 0 0
                            }
                          }
                        }
                      }
                    }
                    JOINT LeftInHandMiddle
                    {
                      OFFSET 3.38211 0.517263 0.756737
                      CHANNELS 3 Zrotation Xrotation Yrotation
                      JOINT LeftHandMiddle1
                      {
                        OFFSET 5.17411 -0.084 0.313895
                        CHANNELS 3 Zrotation Xrotation Yrotation
                        JOINT LeftHandMiddle2
                        {
                          OFFSET 3.94947 0 0
                          CHANNELS 3 Zrotation Xrotation Yrotation
                          JOINT LeftHandMiddle3
                          {
                            OFFSET 2.47579 0 0
                            CHANNELS 3 Zrotation Xrotation Yrotation
                            End Site
                            {
                              OFFSET 1.975 0 0
                            }
                          }
                        }
                      }
                    }
                    JOINT LeftInHandRing
                    {
                      OFFSET 3.36516 0.537895 -0.128947
                      CHANNELS 3 Zrotation Xrotation Yrotation
                      JOINT LeftHandRing1
                      {
                        OFFSET 4.63474 -0.022105 -0.478947
                        CHANNELS 3 Zrotation Xrotation Yrotation
                        JOINT LeftHandRing2
                        {
                          OFFSET 3.44238 0 0
                          CHANNELS 3 Zrotation Xrotation Yrotation
                          JOINT LeftHandRing3
                          {
                            OFFSET 2.3881 0 0
                            CHANNELS 3 Zrotation Xrotation Yrotation
                            End Site
                            {
                              OFFSET 1.857 0 0
                            }
                          }
                        }
                      }
                    }
                    JOINT LeftInHandPinky
                    {
                      OFFSET 3.16105 0.469368 -1.20179
                      CHANNELS 3 Zrotation Xrotation Yrotation
                      JOINT LeftHandPinky1
                      {
                        OFFSET 4.14105 -0.022105 -1.09053
                        CHANNELS 3 Zrotation Xrotation Yrotation
                        JOINT LeftHandPinky2
                        {
                          OFFSET 2.75653 0 0
                          CHANNELS 3 Zrotation Xrotation Yrotation
                          JOINT LeftHandPinky3
                          {
                            OFFSET 1.74189 0 0
                            CHANNELS 3 Zrotation Xrotation Yrotation
                            End Site
                            {
                              OFFSET 1.645 0 0
                            }
                          }
                        }
                      }
                    }
                  }
                }
              }
            }
          }
        }
      }
    }
  }
}
MOTION
Frames: 2
Frame Time: 0.00833333
9.000000000000000000e+02 0.000000000000000000e+00 0.000000000000000000e+00 0.000000000000000000e+00 0.000000000000000000e+00 0.000000000000000000e+00 5.392229942399682230e+00 2.721225031980129661e+00 -2.467286829353972522e+01 8.508257452874374849e+00 -1.579134468136814640e+01 3.587574705094171534e+00 -1.098389532782075406e+00 5.694195067818241363e+00 3.283578814812168734e+00 2.219985984374466703e+00 -3.196549027591273351e+00 6.352885423055638192e+00 1.257422775473767018e+01 -7.330878545187209383e+00 6.763154220805613903e+00 -5.580612799045813865e+00 5.981831229101672420e+00 7.653597641988429068e+00 -8.303725348870181211e-01 -3.854946287173531161e+00 1.178344764805598466e+01 6.451891755097507453e-01 -4.992509928420897358e-01 -1.537206430541350066e+01 1.203846546094000103e-01 1.145093873682795776e-01 -3.877748273199281837e+00 2.024287171618049941e-01 2.852013403118986989e-01 -6.087801667310098530e+00 -2.527541904749771029e-01 -5.270473343640994651e-02 1.311847269317358844e+00 -9.196965688101743641e-01 -2.112858666666726504e-01 1.436471150488160120e+01 -4.546632781866610351e+00 -2.487514723081588386e+00 1.683371733391293290e+01 3.294442641746142986e+00 2.185649300078968071e+00 -8.906758592824925103e+00 2.853228930898049409e+00 -1.458106046030924396e+01 -2.256109707098606521e+01 4.591019057074679388e+00 -1.551446874315958180e+00 2.314449988628183519e+01 -6.000588948841154568e+00 -4.651120575717481387e+00 9.095095052972247629e+00 0.000000000000000000e+00 0.000000000000000000e+00 0.000000000000000000e+00 -2.509771963783999903e-15 2.190900850461923822e-15 0.000000000000000000e+00 -7.501482096900648515e-15 -8.613977194362626137e-18 0.000000000000000000e+00 -4.173336561272705010e-16 -5.280673983755231134e-17 8.265624358606200517e-16 0.000000000000000000e+00 0.000000000000000000e+00 0.000000000000000000e+00 0.000000000000000000e+00 3.592757471041549708e-15 8.343939375243436725e-15 0.000000000000000000e+00 -7.691373520928488635e-16 2.774311449459868956e-15 -4.173336561272705010e-16 -5.280673983755231134e-17 8.265624358606200517e-16 0.000000000000000000e+00 -2.165847353682987216e-15 1.585600993553111547e-15 0.000000000000000000e+00 2.564506164465072862e-15 7.462999977051321541e-15 0.000000000000000000e+00 1.713375930264221653e-15 2.288464015742898893e-16 -4.173336561272705010e-16 -5.280673983755231134e-17 8.265624358606200517e-16 0.000000000000000000e+00 0.000000000000000000e+00 0.000000000000000000e+00 0.000000000000000000e+00 2.924190466738265465e-15 7.905743187615108583e-15 0.000000000000000000e+00 -4.484205755815170919e-16 1.835177687700626257e-15 -4.173336561272705010e-16 -5.280673983755231134e-17 8.265624358606200517e-16 0.000000000000000000e+00 0.000000000000000000e+00 0.000000000000000000e+00 0.000000000000000000e+00 4.441494016586565319e-15 1.384207591566487114e-14 0.000000000000000000e+00 1.021746176105803115e-15 4.300332619548094451e-15 1.405177720639417593e+00 -2.851974429626659813e+00 -4.769557711082154761e+00 1.585780128017398027e+01 1.055932683340326328e+01 -1.408117841900604006e+01 1.727681625292492740e+01 1.512730032125604929e+01 3.088185478403904227e+01 -3.856304165365798120e+00 -7.743615116518125507e-01 9.003420407823531368e-02 0.000000000000000000e+00 0.000000000000000000e+00 0.000000000000000000e+00 -3.554628100965950796e-16 -1.480405542563230893e-15 0.000000000000000000e+00 -3.787891269099467821e-16 -1.595636299298808073e-15 0.000000000000000000e+00 3.012259472651282576e-16 -3.920387057398364469e-16 1.278537647269337756e-15 0.000000000000000000e+00 0.000000000000000000e+00 0.000000000000000000e+00 0.000000000000000000e+00 -1.422103550197803644e-15 -3.912667660862522529e-15 0.000000000000000000e+00 -4.160020643062110611e-16 -2.990649120157387565e-15 3.012259472651282576e-16 -3.920387057398364469e-16 1.278537647269337756e-15 0.000000000000000000e+00 -4.669116542154324958e-16 2.027729405088370590e-15 0.000000000000000000e+00 2.037142875979023745e-16 -1.842375868100252671e-15 0.000000000000000000e+00 2.495671682167542092e-17 -3.890106522988536681e-15 3.012259472651282576e-16 -3.920387057398364469e-16 1.278537647269337756e-15 0.000000000000000000e+00 0.000000000000000000e+00 0.000000000000000000e+00 0.000000000000000000e+00 -6.937789773972733411e-16 -2.441268815737221818e-15 0.000000000000000000e+00 8.217447013105608112e-16 -5.902840111400497372e-15 3.012259472651282576e-16 -3.920387057398364469e-16 1.278537647269337756e-15 0.000000000000000000e+00 0.000000000000000000e+00 0.000000000000000000e+00 0.000000000000000000e+00 3.290152614505708287e-16 -3.462758724075311366e-16 0.000000000000000000e+00 -5.052837047687723671e-16 -8.235686951816879072e-16
9.000000000000000000e+02 0.000000000000000000e+00 0.000000000000000000e+00 0.000000000000000000e+00 0.000000000000000000e+00 0.000000000000000000e+00 5.483534849882289564e+00 2.789164854387844894e+00 -2.465507258331865259e+01 8.122185398587147276e+00 -1.585236384513310881e+01 3.311349127636592726e+00 -1.038704835570252172e+00 5.730924035994765298e+00 3.170620489953681176e+00 2.395329279748104945e+00 -3.566157631869449673e+00 6.107710625869598786e+00 1.235634654447978953e+01 -7.513018124072404547e+00 6.585898755031812435e+00 -5.414750531870473615e+00 5.997107832211035827e+00 7.545448729276828637e+00 -6.877393444668107314e-01 -3.756645372367170665e+00 1.185277341991627509e+01 7.063257546432032408e-01 -3.153307559459346265e-01 -1.541639393226452093e+01 1.400022873343516328e-01 1.664540265365374305e-01 -3.888472338685203145e+00 2.313029833597991525e-01 3.734327038307074798e-01 -6.098774839888985611e+00 -2.482935715221993023e-01 -4.671895377271672450e-02 1.299187346955586131e+00 -9.156578946040536682e-01 -1.557147993236885353e-01 1.434805690212795071e+01 -4.456288823821629386e+00 -2.477792018203927693e+00 1.662261925371871740e+01 3.344322778240599092e+00 2.081250808980624090e+00 -8.850695890672406918e+00 3.267060921316723210e+00 -1.427445520865523498e+01 -2.237901602495896469e+01 4.724434223946157196e+00 -1.429427392854369705e+00 2.228107664460710424e+01 -6.015480913416970665e+00 -4.737104022595703512e+00 8.931007914051173557e+00 0.000000000000000000e+00 0.000000000000000000e+00 0.000000000000000000e+00 -2.492175883054213195e-15 2.146528506086291904e-15 0.000000000000000000e+00 -7.368311190949598215e-15 -6.748168971374342324e-17 0.000000000000000000e+00 -4.213896826953824440e-16 -1.339835306263961509e-18 7.876508895353673630e-16 0.000000000000000000e+00 0.000000000000000000e+00 0.000000000000000000e+00 0.000000000000000000e+00 3.501326680496275399e-15 8.204094430376096093e-15 0.000000000000000000e+00 -7.618657374781150963e-16 2.759212969464418646e-15 -4.213896826953824440e-16 -1.339835306263961509e-18 7.876508895353673630e-16 0.000000000000000000e+00 -2.092974987661623851e-15 1.519696593757071196e-15 0.000000000000000000e+00 2.483677451468542500e-15 7.396240722380377059e-15 0.000000000000000000e+00 1.693428305975563078e-15 3.217151436553373976e-16 -4.213896826953824440e-16 -1.339835306263961509e-18 7.876508895353673630e-16 0.000000000000000000e+00 0.000000000000000000e+00 0.000000000000000000e+00 0.000000000000000000e+00 2.906444286395932728e-15 7.799049526024756029e-15 0.000000000000000000e+00 -4.256493566673415290e-16 1.897855305749797002e-15 -4.213896826953824440e-16 -1.339835306263961509e-18 7.876508895353673630e-16 0.000000000000000000e+00 0.000000000000000000e+00 0.000000000000000000e+00 0.000000000000000000e+00 4.345457474571136433e-15 1.366487318306316123e-14 0.000000000000000000e+00 1.001361123190025075e-15 4.382789608688932542e-15 1.512987324049233528e+00 -2.935607288663101055e+00 -4.752047381842874785e+00 1.545761905362990873e+01 1.088363898195276747e+01 -1.405016457158471432e+01 1.675342254015628285e+01 1.481132097082226728e+01 3.099317143750087311e+01 -3.831324777149859528e+00 -9.144033851037571825e-01 1.963349593087824196e-01 0.000000000000000000e+00 0.000000000000000000e+00 0.000000000000000000e+00 -3.966668096396529998e-16 -1.448436029468598297e-15 0.000000000000000000e+00 -3.782932001178898344e-16 -1.563158392265883671e-15 0.000000000000000000e+00 3.392959053633589560e-16 -3.752547608802762907e-16 1.249431978203950195e-15 0.000000000000000000e+00 0.000000000000000000e+00 0.000000000000000000e+00 0.000000000000000000e+00 -1.351670179935250395e-15 -3.919646039272107417e-15 0.000000000000000000e+00 -4.182072422571787024e-16 -2.992071092993534185e-15 3.392959053633589560e-16 -3.752547608802762907e-16 1.249431978203950195e-15 0.000000000000000000e+00 -4.609268346460037524e-16 1.979259776495136535e-15 0.000000000000000000e+00 2.268671982429657550e-16 -1.847776113393762969e-15 0.000000000000000000e+00 -2.210997426221139356e-17 -3.847414704478593585e-15 3.392959053633589560e-16 -3.752547608802762907e-16 1.249431978203950195e-15 0.000000000000000000e+00 0.000000000000000000e+00 0.000000000000000000e+00 0.000000000000000000e+00 -6.707540874682961307e-16 -2.419197389720733795e-15 0.000000000000000000e+00 7.984483783827269553e-16 -5.774969244673463039e-15 3.392959053633589560e-16 -3.752547608802762907e-16 1.249431978203950195e-15 0.000000000000000000e+00 0.000000000000000000e+00 0.000000000000000000e+00 0.000000000000000000e+00 2.901735093198873165e-16 -3.663273987562693770e-16 0.000000000000000000e+00 -4.919188165113845550e-16 -8.266100285409448888e-16
